<svg width="41" height="40" viewBox="0 0 41 40" fill="none" xmlns="http://www.w3.org/2000/svg">
<path d="M39.6765 21.0009L31.0867 17.0469V5.71779C31.0828 5.48011 31.0106 5.24857 30.8787 5.05078C30.7469 4.85299 30.5609 4.69729 30.343 4.60224L21.0467 0.325928C20.8835 0.250416 20.7059 0.211304 20.5261 0.211304C20.3463 0.211304 20.1687 0.250416 20.0055 0.325928L10.7092 4.60224C10.494 4.70181 10.312 4.86099 10.1845 5.06092C10.0571 5.26084 9.9897 5.49311 9.99028 5.73019V17.0593L1.43767 21.0009C1.22252 21.1005 1.04043 21.2597 0.913006 21.4596C0.785583 21.6595 0.718167 21.8918 0.718754 22.1289V34.2513C0.718167 34.4884 0.785583 34.7207 0.913006 34.9206C1.04043 35.1205 1.22252 35.2797 1.43767 35.3793L10.734 39.6556C10.8972 39.7311 11.0748 39.7702 11.2546 39.7702C11.4344 39.7702 11.612 39.7311 11.7752 39.6556L20.5509 35.6148L29.3266 39.6556C29.4898 39.7311 29.6674 39.7702 29.8472 39.7702C30.027 39.7702 30.2047 39.7311 30.3678 39.6556L39.6641 35.3793C39.8793 35.2797 40.0614 35.1205 40.1888 34.9206C40.3162 34.7207 40.3836 34.4884 40.3831 34.2513V22.1289C40.3847 21.8932 40.3192 21.6618 40.194 21.4621C40.0689 21.2623 39.8894 21.1023 39.6765 21.0009ZM29.8596 25.017L23.5257 22.1289L29.8596 19.2161L36.1935 22.1289L29.8596 25.017ZM28.6201 17.0345L20.6377 20.753V11.2212C20.7871 11.2146 20.9341 11.181 21.0715 11.1221L28.6077 7.66382V17.0593L28.6201 17.0345ZM20.5509 2.80495L26.8848 5.71779L20.5509 8.63064L14.2294 5.71779L20.5509 2.80495ZM11.2546 19.2037L17.5885 22.1165L11.2546 25.017L4.92069 22.1289L11.2546 19.2037ZM19.3114 33.4456L11.2546 37.1642V27.6323C11.4276 27.622 11.5965 27.5756 11.7504 27.496L19.2866 24.0254L19.3114 33.4456ZM37.904 33.4456L29.8968 37.1642V27.6323C30.0528 27.6155 30.2043 27.5693 30.343 27.496L37.8792 24.0254L37.904 33.4456Z" fill="#ECA22D"/>
</svg>
