<svg width="40" height="39" viewBox="0 0 40 39" fill="none" xmlns="http://www.w3.org/2000/svg">
<path d="M19.8751 0C30.8521 0 39.7502 8.55584 39.7502 19.1107C39.7502 29.6655 30.8521 38.2213 19.8751 38.2213C8.89808 38.2213 0 29.6655 0 19.1107C0 8.55584 8.89808 0 19.8751 0ZM19.8751 2.66594C15.3392 2.66594 10.9891 4.3985 7.78178 7.48249C4.57444 10.5665 2.77257 14.7492 2.77257 19.1107C2.77257 23.4721 4.57444 27.6549 7.78178 30.7388C10.9891 33.8228 15.3392 35.5554 19.8751 35.5554C24.411 35.5554 28.761 33.8228 31.9684 30.7388C35.1757 27.6549 36.9776 23.4721 36.9776 19.1107C36.9776 14.7492 35.1757 10.5665 31.9684 7.48249C28.761 4.3985 24.411 2.66594 19.8751 2.66594ZM18.0267 10.6657C18.7919 10.6657 19.412 11.2638 19.412 11.9996V21.3332H29.119C29.4776 21.3463 29.8169 21.4924 30.0658 21.741C30.3147 21.9895 30.4538 22.3212 30.4538 22.6662C30.4538 23.0112 30.3147 23.3429 30.0658 23.5914C29.8169 23.84 29.4776 23.9861 29.119 23.9992H18.0267C17.6588 23.9992 17.3059 23.8586 17.0457 23.6085C16.7856 23.3583 16.6394 23.019 16.6394 22.6652V12.0015C16.6394 11.2638 17.2595 10.6657 18.0267 10.6657Z" fill="#ECA22D"/>
</svg>
