<svg width="506" height="88" viewBox="0 0 506 88" fill="none" xmlns="http://www.w3.org/2000/svg">
<path d="M232.8 39.7599L232.395 40.6739L232.8 39.7599ZM224.922 72.4164L225.812 71.9601L224.922 72.4164ZM505.034 80.9012C505.147 81.4416 504.802 81.9721 504.261 82.086L495.455 83.9425C494.914 84.0565 494.384 83.7107 494.27 83.1703C494.156 82.6299 494.502 82.0995 495.042 81.9855L502.87 80.3353L501.22 72.5074C501.106 71.967 501.452 71.4365 501.992 71.3226C502.533 71.2087 503.063 71.5544 503.177 72.0948L505.034 80.9012ZM2.47729 28.4484C6.2179 41.8302 11.7492 51.5951 18.6235 58.5282C25.4927 65.4561 33.7519 69.6063 43.0348 71.6857C61.6561 75.8569 84.356 71.6892 107.996 64.8259C119.798 61.3995 131.789 57.316 143.579 53.2965C155.361 49.2802 166.946 45.3264 177.898 42.1761C188.848 39.0265 199.208 36.6674 208.542 35.853C217.871 35.0391 226.255 35.7604 233.206 38.8459L232.395 40.6739C225.873 37.7792 217.869 37.0468 208.716 37.8454C199.568 38.6435 189.351 40.9631 178.451 44.0982C167.554 47.2326 156.017 51.1695 144.225 55.1896C132.441 59.2065 120.407 63.3052 108.554 66.7466C84.8836 73.6186 61.7538 77.9284 42.5976 73.6374C32.9917 71.4856 24.3753 67.1698 17.2033 59.9364C10.0365 52.7083 4.36112 42.6168 0.551114 28.9868L2.47729 28.4484ZM233.206 38.8459C239.517 41.6471 247.122 45.5165 253.158 50.9173C259.208 56.3302 263.754 63.3499 263.754 72.4164L261.754 72.4164C261.754 64.101 257.608 57.5826 251.824 52.4078C246.027 47.221 238.656 43.4531 232.395 40.6739L233.206 38.8459ZM263.754 72.4164C263.754 77.052 261.902 80.7473 258.934 83.3101C255.984 85.8568 251.984 87.2438 247.711 87.4107C239.161 87.7447 229.331 83.2039 224.033 72.8727L225.812 71.9601C230.739 81.5671 239.824 85.7173 247.633 85.4122C251.54 85.2596 255.081 83.9946 257.627 81.7963C260.154 79.6142 261.754 76.4718 261.754 72.4164L263.754 72.4164ZM224.033 72.8727C222.403 69.6957 221.148 63.9297 221.377 57.0438C221.606 50.1301 223.332 41.9978 227.765 34.0817C236.662 18.1934 256.315 3.41462 295.919 0.868573L296.048 2.86445C256.922 5.37974 237.989 19.917 229.51 35.0589C225.255 42.6578 223.596 50.4691 223.375 57.1101C223.154 63.7787 224.386 69.1783 225.812 71.9601L224.033 72.8727ZM295.919 0.868573C315.777 -0.408006 338.756 3.94997 362.005 11.1575C385.266 18.369 408.864 28.4545 429.979 38.6891C451.097 48.925 469.749 59.3179 483.121 67.1515C489.807 71.0686 495.175 74.3465 498.872 76.6459C500.72 77.7956 502.151 78.7007 503.121 79.3188C503.606 79.6278 503.975 79.8651 504.224 80.0254C504.348 80.1055 504.442 80.1664 504.505 80.2074C504.537 80.2278 504.56 80.2433 504.576 80.2537C504.585 80.259 504.591 80.2629 504.595 80.2656C504.597 80.2669 504.598 80.268 504.599 80.2686C504.6 80.2693 504.601 80.2698 504.055 81.1075C503.509 81.9453 503.509 81.945 503.508 81.9445C503.507 81.9439 503.505 81.943 503.504 81.9418C503.5 81.9393 503.494 81.9356 503.486 81.9306C503.471 81.9206 503.448 81.9055 503.417 81.8855C503.355 81.8455 503.263 81.7855 503.14 81.7063C502.894 81.5478 502.527 81.3124 502.046 81.0052C501.082 80.3909 499.657 79.4898 497.816 78.3442C494.132 76.053 488.779 72.7844 482.11 68.8772C468.77 61.0623 450.166 50.696 429.107 40.4889C408.046 30.2806 384.546 20.2396 361.413 13.0678C338.267 5.89218 315.555 1.61036 296.048 2.86445L295.919 0.868573Z" fill="#879DA5"/>
</svg>
