<svg width="235" height="72" viewBox="0 0 235 72" fill="none" xmlns="http://www.w3.org/2000/svg">
<path fill-rule="evenodd" clip-rule="evenodd" d="M22.5756 6.54783C22.6158 2.94127 25.6071 0.0220468 29.2679 0.0160611C33.0493 0.0100932 36.1226 3.01897 36.1209 6.72542C36.1201 10.3422 32.8902 13.5159 29.2337 13.4938C25.5652 13.4715 22.5337 10.3098 22.5756 6.54783Z" fill="#ECA22D"/>
<path fill-rule="evenodd" clip-rule="evenodd" d="M36.1141 65.44H36.1167C36.109 48.3541 36.1013 31.2691 36.0944 14.1849C31.0218 16.9385 26.2442 20.2095 20.6738 22.4209C20.6738 22.4209 23.471 24.2566 23.5779 30.2505C23.7651 30.855 23.6018 31.5099 23.6027 32.1272C23.6044 33.0374 23.6052 33.9484 23.6069 34.8594H23.5847V59.8765C23.5779 60.9702 23.5821 62.064 23.5727 63.1569C23.5719 63.3174 23.5779 63.4591 23.5847 63.6017V66.6055C23.5787 67.4491 23.5796 68.2909 23.5727 69.1337C23.5582 70.925 23.9456 71.6106 25.8876 71.509C29.2902 71.3323 32.7064 71.433 36.1167 71.4168C36.1158 69.424 36.115 67.432 36.1141 65.44Z" fill="#0C2D46"/>
<path fill-rule="evenodd" clip-rule="evenodd" d="M116.35 71.984H117.264V7.12323H116.35V71.984Z" fill="#ECA22D"/>
<path fill-rule="evenodd" clip-rule="evenodd" d="M132.776 9.02471V23.1657H134.907C136.812 23.1657 138.257 22.6406 139.243 21.5896C140.413 20.3379 140.998 18.3357 140.998 15.5821C140.998 13.3135 140.48 11.6366 139.444 10.5513C138.474 9.53445 137.07 9.02471 135.232 9.02471H132.776ZM129.016 7.57321H137.588C140.096 7.57321 142.026 8.39886 143.378 10.051C144.565 11.5025 145.159 13.3545 145.159 15.6068C145.159 18.3775 144.281 20.5881 142.527 22.2402C140.856 23.8258 138.691 24.6181 136.035 24.6181H129.016V7.57321Z" fill="#0C2D46"/>
<path fill-rule="evenodd" clip-rule="evenodd" d="M170.176 19.3306C170.877 17.9457 171.505 16.7188 172.056 15.6515C172.741 14.3161 173.401 13.0063 174.037 11.7213C174.938 9.88646 175.599 8.50156 176.017 7.56662C176.251 7.60248 176.455 7.63236 176.631 7.65883C176.806 7.6853 176.952 7.69811 177.07 7.69811C177.186 7.69811 177.362 7.68103 177.596 7.64603C177.83 7.61017 178.013 7.58455 178.147 7.56662C178.381 9.68667 178.624 11.7965 178.875 13.8994C179.259 17.2029 179.484 19.089 179.551 19.556C179.768 21.1074 180.036 22.8347 180.353 24.737C180.103 24.737 179.726 24.7165 179.225 24.6773C178.724 24.6371 178.406 24.6175 178.273 24.6175C177.989 24.6175 177.608 24.6371 177.133 24.6773C176.655 24.7165 176.359 24.737 176.242 24.737C176.242 23.1523 176.117 21.297 175.866 19.1709C175.616 17.0449 175.381 15.0137 175.164 13.0798C174.53 14.3648 173.899 15.6455 173.272 16.9211C172.646 18.1976 172.022 19.4706 171.405 20.7386C170.986 21.6061 170.385 22.8996 169.599 24.6175C169.332 24.5842 169.131 24.568 168.998 24.568C168.931 24.568 168.814 24.5842 168.647 24.6175C168.078 23.4162 167.511 22.2234 166.943 21.0383C166.224 19.5705 165.605 18.3103 165.087 17.2592C164.436 15.958 163.792 14.6559 163.157 13.3547C162.907 15.2408 162.731 16.6172 162.631 17.4846C162.463 18.8695 162.334 20.1631 162.242 21.3636C162.15 22.5658 162.105 23.6919 162.105 24.743C161.837 24.7097 161.607 24.6807 161.415 24.6551C161.222 24.6303 161.06 24.6175 160.926 24.6175C160.676 24.6175 160.467 24.6294 160.299 24.6534C160.133 24.6773 159.957 24.7046 159.773 24.737C160.074 23.102 160.366 21.3414 160.65 19.4553C160.818 18.4042 161.089 16.519 161.465 13.7987C161.841 11.0793 162.129 9.0019 162.329 7.56662C162.564 7.60248 162.765 7.63236 162.931 7.65883C163.099 7.6853 163.241 7.69811 163.357 7.69811C163.592 7.69811 163.796 7.68103 163.972 7.64603C164.147 7.61017 164.294 7.58455 164.411 7.56662C164.828 8.48448 165.446 9.78656 166.266 11.4712C166.9 12.7732 167.544 14.083 168.196 15.4005C168.847 16.7188 169.507 18.0294 170.176 19.3306Z" fill="#0C2D46"/>
<path fill-rule="evenodd" clip-rule="evenodd" d="M191.809 8.6244C190.021 8.6244 188.659 9.29039 187.724 10.6232C186.737 12.0218 186.245 14.0966 186.245 16.845C186.245 18.6773 186.646 20.2023 187.447 21.4173C188.383 22.8337 189.728 23.5416 191.483 23.5416C193.305 23.5416 194.716 22.7338 195.719 21.1176C196.622 19.6524 197.073 17.7945 197.073 15.5455C197.073 13.6961 196.672 12.1396 195.87 10.8725C194.918 9.37406 193.565 8.6244 191.809 8.6244ZM201.234 16.0202C201.234 18.5535 200.357 20.6693 198.602 22.3693C196.764 24.1521 194.35 25.0434 191.358 25.0434C188.534 25.0434 186.282 24.2605 184.602 22.6946C182.922 21.1278 182.083 18.9369 182.083 16.1201C182.083 13.5373 182.944 11.4138 184.665 9.74718C186.47 7.9977 188.901 7.12253 191.959 7.12253C195.202 7.12253 197.641 8.12236 199.279 10.122C200.583 11.7212 201.234 13.6884 201.234 16.0202Z" fill="#0C2D46"/>
<path fill-rule="evenodd" clip-rule="evenodd" d="M204.192 24.6928V7.57278H206.674C207.777 8.77412 208.972 10.0591 210.26 11.4278C210.978 12.1783 212.202 13.4881 213.931 15.3571C215.661 17.2261 216.852 18.5359 217.503 19.2864V7.57278L218.506 7.64792L219.509 7.57278V24.7432L217.379 24.7176C215.957 23.15 214.545 21.5729 213.142 19.9874C211.671 18.3523 210.267 16.8334 208.931 15.4322L206.199 12.5788V24.7432L205.195 24.6177L204.192 24.6928Z" fill="#0C2D46"/>
<path fill-rule="evenodd" clip-rule="evenodd" d="M230.512 9.35026V24.743C230.229 24.743 229.995 24.7345 229.811 24.7182C229.092 24.6508 228.7 24.6175 228.633 24.6175C228.348 24.6175 227.98 24.6388 227.53 24.6807C227.078 24.7217 226.819 24.743 226.753 24.743V9.35026C225.866 9.35026 225.093 9.37929 224.434 9.43821C223.773 9.49627 222.992 9.58421 222.089 9.70033C222.123 9.46724 222.153 9.26232 222.177 9.08729C222.202 8.91225 222.215 8.75856 222.215 8.62451C222.215 8.39056 222.198 8.1865 222.165 8.01147C222.131 7.83643 222.106 7.69043 222.089 7.5726H234.999C234.966 7.80655 234.937 8.01147 234.912 8.1865C234.886 8.36153 234.874 8.50754 234.874 8.62451C234.874 8.87468 234.891 9.08729 234.924 9.26232C234.957 9.43821 234.983 9.58421 234.999 9.70033C233.779 9.55006 233.044 9.46724 232.794 9.45016C232.041 9.38356 231.28 9.35026 230.512 9.35026Z" fill="#0C2D46"/>
<path fill-rule="evenodd" clip-rule="evenodd" d="M129.528 39.7328V30.4731L130.123 30.514L130.72 30.4731V39.7191L130.123 39.679L129.528 39.7328Z" fill="#879DA5"/>
<path fill-rule="evenodd" clip-rule="evenodd" d="M141.21 30.4733V39.733H140.803L140.092 38.9005L134.251 32.4336H134.115V39.7193L133.737 39.6783L133.357 39.733V30.4733L133.888 30.4707L140.309 37.4405L140.451 37.4345V30.4733L140.831 30.5143L141.21 30.4733Z" fill="#879DA5"/>
<path fill-rule="evenodd" clip-rule="evenodd" d="M143.377 37.8942H143.513C143.804 38.3587 144.104 38.6977 144.413 38.9111C144.776 39.1613 145.212 39.2868 145.721 39.2868C146.266 39.2868 146.717 39.0955 147.076 38.713C147.435 38.3314 147.614 37.8652 147.614 37.3162C147.614 36.6323 147.249 36.1012 146.518 35.7238C145.832 35.4258 145.151 35.1253 144.473 34.8187C143.743 34.3782 143.377 33.7258 143.377 32.8618C143.377 32.0344 143.675 31.3864 144.271 30.9185C144.82 30.4864 145.525 30.2704 146.383 30.2704C146.744 30.2704 147.096 30.3251 147.439 30.4326C147.781 30.5411 148.075 30.7033 148.318 30.9193C148.256 31.0636 148.202 31.1985 148.156 31.3249C148.147 31.3522 148.079 31.5862 147.954 32.0276H147.818C147.673 31.6502 147.459 31.359 147.175 31.1558C146.89 30.9535 146.545 30.8519 146.138 30.8519C145.66 30.8519 145.257 30.9987 144.927 31.2907C144.598 31.5827 144.433 31.9636 144.433 32.4314C144.433 33.1145 144.798 33.6456 145.53 34.0238C146.215 34.3295 146.901 34.6309 147.588 34.928C148.327 35.3601 148.698 35.9808 148.698 36.7911C148.698 37.7354 148.373 38.491 147.723 39.058C147.109 39.5976 146.319 39.8683 145.354 39.8683C144.984 39.8683 144.577 39.7965 144.136 39.6539C143.693 39.5105 143.363 39.3218 143.147 39.0887C143.212 38.8923 143.257 38.7113 143.286 38.5457C143.315 38.38 143.345 38.1632 143.377 37.8942Z" fill="#879DA5"/>
<path fill-rule="evenodd" clip-rule="evenodd" d="M153.733 31.122V39.7328L153.137 39.7063L152.541 39.7464V31.122C151.838 31.122 151.337 31.1314 151.039 31.1493C150.74 31.1672 150.254 31.2116 149.577 31.2842L149.618 30.8786L149.577 30.4731H156.562L156.522 30.8786L156.562 31.2842C156.228 31.2483 155.806 31.2116 155.297 31.1757C154.786 31.1399 154.265 31.122 153.733 31.122Z" fill="#879DA5"/>
<path fill-rule="evenodd" clip-rule="evenodd" d="M158.119 39.7328V30.4731L158.714 30.514L159.311 30.4731V39.7191L158.714 39.679L158.119 39.7328Z" fill="#879DA5"/>
<path fill-rule="evenodd" clip-rule="evenodd" d="M165.024 31.122V39.7328L164.428 39.7063L163.832 39.7464V31.122C163.129 31.122 162.628 31.1314 162.33 31.1493C162.032 31.1672 161.545 31.2116 160.868 31.2842L160.909 30.8786L160.868 30.4731H167.853L167.813 30.8786L167.853 31.2842C167.519 31.2483 167.097 31.2116 166.588 31.1757C166.077 31.1399 165.556 31.122 165.024 31.122Z" fill="#879DA5"/>
<path fill-rule="evenodd" clip-rule="evenodd" d="M170.588 30.4733V35.6432C170.588 36.8846 170.795 37.7803 171.211 38.3285C171.671 38.9406 172.46 39.2455 173.579 39.2455C174.599 39.2455 175.353 38.8997 175.841 38.2072C176.282 37.5771 176.504 36.6772 176.504 35.5074V30.4733L176.883 30.5143L177.262 30.4733V35.8455C177.262 37.1502 176.908 38.1466 176.199 38.8356C175.491 39.5247 174.527 39.8679 173.309 39.8679C172.045 39.8679 171.066 39.5537 170.371 38.9227C169.992 38.5812 169.725 38.1133 169.573 37.519C169.455 37.0699 169.396 36.5209 169.396 35.872V30.4733L169.992 30.5143L170.588 30.4733Z" fill="#879DA5"/>
<path fill-rule="evenodd" clip-rule="evenodd" d="M183.084 31.122V39.7328L182.489 39.7063L181.893 39.7464V31.122C181.189 31.122 180.688 31.1314 180.39 31.1493C180.092 31.1672 179.605 31.2116 178.928 31.2842L178.969 30.8786L178.928 30.4731H185.914L185.874 30.8786L185.914 31.2842C185.579 31.2483 185.158 31.2116 184.648 31.1757C184.138 31.1399 183.617 31.122 183.084 31.122Z" fill="#879DA5"/>
<path fill-rule="evenodd" clip-rule="evenodd" d="M188.581 31.1086V34.5017H190.679C190.85 34.5017 191.08 34.4932 191.363 34.4744C191.647 34.4564 191.821 34.4471 191.884 34.4471L191.843 34.7988L191.884 35.1779C191.723 35.1779 191.496 35.1643 191.208 35.1369C190.919 35.1105 190.743 35.096 190.679 35.096H188.581V39.0432C188.87 39.0432 189.342 39.0347 189.996 39.0167C190.65 38.9979 190.995 38.9885 191.032 38.9885C191.284 38.9885 191.469 38.9826 191.587 38.9689C191.704 38.9552 191.934 38.9211 192.277 38.8682L192.237 39.2737L192.277 39.6784H187.39V30.4734H192.196L192.155 30.8627L192.196 31.2572C191.925 31.2034 191.704 31.165 191.533 31.1428C191.361 31.1206 191.176 31.1086 190.978 31.1086H189.624H188.581Z" fill="#879DA5"/>
<path fill-rule="evenodd" clip-rule="evenodd" d="M201.788 33.5767C201.495 33.5494 201.252 33.5357 201.059 33.5357C199.607 33.5357 198.494 34.0924 197.722 35.2058C197.419 35.6472 197.162 36.1527 196.953 36.723C196.742 37.2943 196.638 37.7715 196.638 38.1575C196.638 38.4281 196.716 38.6493 196.873 38.8234C197.031 38.9968 197.231 39.083 197.473 39.083C198.048 39.083 198.683 38.6228 199.379 37.7024C200.074 36.782 200.421 35.9392 200.421 35.1725C200.421 35.0017 200.377 34.8574 200.285 34.7388C200.194 34.6201 200.085 34.5603 199.958 34.5603C199.516 34.5603 199.094 35.0017 198.691 35.8837C198.664 35.7736 198.649 35.6771 198.649 35.5943C198.649 35.2528 198.862 34.8942 199.287 34.5193C199.712 34.1445 200.115 33.9567 200.496 33.9567C200.75 33.9567 200.965 34.06 201.142 34.2674C201.319 34.4741 201.407 34.7268 201.407 35.0239C201.407 36.0212 200.77 37.0799 199.494 38.1985C198.401 39.1693 197.493 39.6542 196.77 39.6542C196.456 39.6542 196.194 39.5407 195.987 39.3153C195.781 39.089 195.677 38.8055 195.677 38.464C195.677 37.7084 195.94 36.9186 196.468 36.0946C196.995 35.2707 197.689 34.5603 198.55 33.9652C199.025 33.6399 199.543 33.3735 200.103 33.1643C200.663 32.9543 201.139 32.8492 201.531 32.8492C201.774 32.8492 201.895 32.9568 201.895 33.1711C201.895 33.2548 201.859 33.3897 201.788 33.5767Z" fill="#879DA5"/>
<path fill-rule="evenodd" clip-rule="evenodd" d="M205.919 32.9897L205.843 33.2467H204.503L202.25 39.5957C202.035 39.5957 201.891 39.6213 201.819 39.67C201.747 39.7204 201.667 39.8519 201.58 40.067C201.121 41.142 200.735 41.919 200.419 42.3997C200.056 42.9717 199.637 43.4302 199.166 43.7718C198.694 44.1124 198.251 44.2841 197.837 44.2841C197.61 44.2841 197.42 44.226 197.27 44.1099C197.118 43.9946 197.042 43.8486 197.042 43.6727C197.042 43.6164 197.055 43.5378 197.083 43.4319C197.381 43.5037 197.668 43.5395 197.945 43.5395C198.911 43.5395 199.676 43.0861 200.241 42.1802C200.808 41.2726 201.643 39.1611 202.747 35.8423L203.517 33.5276L203.608 33.2467H202.689L202.78 33.0144H202.88L203.111 32.9982C203.503 32.9982 203.824 32.7173 204.072 32.1546C204.397 31.4101 204.766 30.815 205.177 30.3693C205.589 29.9227 206.164 29.4864 206.904 29.0621C207.71 28.6053 208.378 28.3765 208.907 28.3765C209.288 28.3765 209.473 28.4584 209.463 28.6249C209.457 28.6907 209.404 28.87 209.305 29.162L208.916 30.3112H208.651C208.755 29.9748 208.808 29.7187 208.808 29.5419C208.808 29.261 208.552 29.121 208.039 29.121C207.288 29.121 206.659 29.3951 206.154 29.9432C205.649 30.4914 205.153 31.4357 204.668 32.7754L204.593 32.9897H205.919Z" fill="#879DA5"/>
<path fill-rule="evenodd" clip-rule="evenodd" d="M138.219 46.394H138.503C138.693 48.1905 138.81 49.2911 138.855 49.6966C139 51.0235 139.119 52.0549 139.214 52.79C139.308 53.526 139.438 54.4806 139.6 55.6538L138.964 55.5991L138.328 55.6393C138.245 54.7385 138.171 53.8787 138.104 53.0581C138.036 52.2385 137.959 51.4273 137.874 50.6247C137.788 49.823 137.708 49.1698 137.637 48.6644C137.087 49.6557 136.608 50.5214 136.202 51.26C135.732 52.1249 135.34 52.8737 135.024 53.5038C134.68 54.198 134.369 54.8606 134.09 55.4907H133.941L133.196 53.9632C132.871 53.2878 132.582 52.7047 132.33 52.2129C132.077 51.7219 131.765 51.1251 131.396 50.4224C131.079 49.8358 130.768 49.2509 130.462 48.6644C130.308 49.9536 130.158 51.2549 130.015 52.5706C129.87 53.8864 129.798 54.9101 129.798 55.6393L129.325 55.5991L128.836 55.6393C129.026 54.4687 129.274 52.8037 129.581 50.6452C129.888 48.4868 130.074 47.0694 130.137 46.394H130.489C130.958 47.3128 131.341 48.0658 131.64 48.6516C132 49.3449 132.429 50.1432 132.926 51.0431C133.467 52.0267 133.931 52.837 134.32 53.4774C135.619 51.1157 136.919 48.7549 138.219 46.394Z" fill="#879DA5"/>
<path fill-rule="evenodd" clip-rule="evenodd" d="M146.037 51.4219L144.542 47.975L143.061 51.4219H146.037ZM145.027 46.1906L149.089 55.6535L148.386 55.5997L147.668 55.639C147.343 54.7117 147.068 53.9638 146.842 53.396C146.698 53.0357 146.499 52.5669 146.247 51.9897H142.808C142.284 53.2961 141.991 54.0398 141.928 54.2199C141.792 54.5811 141.639 55.0541 141.468 55.639L140.966 55.5997L140.493 55.639L144.716 46.1906H145.027Z" fill="#879DA5"/>
<path fill-rule="evenodd" clip-rule="evenodd" d="M158.512 46.394V55.6538H158.105L157.394 54.8213L151.553 48.3536H151.418V55.6392L151.039 55.5991L150.659 55.6538V46.394L151.19 46.3906L157.611 53.3612L157.753 53.3553V46.394L158.133 46.4342L158.512 46.394Z" fill="#879DA5"/>
<path fill-rule="evenodd" clip-rule="evenodd" d="M165.599 51.4219L164.104 47.975L162.623 51.4219H165.599ZM164.59 46.1906L168.652 55.6535L167.948 55.5997L167.231 55.639C166.906 54.7117 166.63 53.9638 166.405 53.396C166.26 53.0357 166.062 52.5669 165.809 51.9897H162.371C161.847 53.2961 161.553 54.0398 161.49 54.2199C161.355 54.5811 161.201 55.0541 161.03 55.639L160.529 55.5997L160.055 55.639L164.279 46.1906H164.59Z" fill="#879DA5"/>
<path fill-rule="evenodd" clip-rule="evenodd" d="M178.156 48.0159H178.008C177.638 47.5924 177.184 47.2679 176.647 47.0425C176.109 46.818 175.548 46.7044 174.962 46.7044C173.779 46.7044 172.833 47.0758 172.125 47.8186C171.416 48.5606 171.062 49.6014 171.062 50.9428C171.062 52.3098 171.408 53.3736 172.098 54.1344C172.789 54.8951 173.792 55.2751 175.11 55.2751C175.49 55.2751 175.861 55.2367 176.227 55.1598C176.593 55.0838 176.925 54.9703 177.223 54.8166V51.3543L177.818 51.3953L178.414 51.3543V55.1684C177.213 55.5816 175.986 55.7891 174.732 55.7891C173.088 55.7891 171.83 55.334 170.954 54.4255C170.142 53.5794 169.736 52.4412 169.736 51.0102C169.736 49.4802 170.236 48.2831 171.238 47.4199C172.195 46.6011 173.454 46.1904 175.015 46.1904C175.9 46.1904 176.69 46.2946 177.385 46.502C177.809 46.6284 178.17 46.7864 178.468 46.9751C178.432 47.0741 178.385 47.2227 178.326 47.4216C178.267 47.6197 178.21 47.8178 178.156 48.0159Z" fill="#879DA5"/>
<path fill-rule="evenodd" clip-rule="evenodd" d="M181.798 47.0294V50.4225H183.897C184.068 50.4225 184.297 50.4131 184.581 50.3944C184.865 50.3773 185.038 50.3679 185.102 50.3679L185.06 50.7188L185.102 51.0979C184.94 51.0979 184.713 51.0843 184.425 51.0578C184.136 51.0305 183.96 51.0168 183.897 51.0168H181.798V54.964C182.087 54.964 182.559 54.9546 183.213 54.9367C183.868 54.9188 184.212 54.9094 184.249 54.9094C184.501 54.9094 184.687 54.9034 184.804 54.8897C184.921 54.8752 185.151 54.8419 185.494 54.7881L185.454 55.1937L185.494 55.5993H180.607V46.3942H185.414L185.373 46.7827L185.414 47.178C185.143 47.1234 184.921 47.0849 184.75 47.0627C184.578 47.0405 184.393 47.0294 184.195 47.0294H182.841H181.798Z" fill="#879DA5"/>
<path fill-rule="evenodd" clip-rule="evenodd" d="M196.148 46.394H196.432C196.621 48.1905 196.739 49.2911 196.784 49.6966C196.928 51.0235 197.048 52.0549 197.143 52.79C197.237 53.526 197.366 54.4806 197.529 55.6538L196.892 55.5991L196.256 55.6393C196.174 54.7385 196.1 53.8787 196.032 53.0581C195.965 52.2385 195.888 51.4273 195.803 50.6247C195.717 49.823 195.637 49.1698 195.565 48.6644C195.015 49.6557 194.537 50.5214 194.13 51.26C193.661 52.1249 193.268 52.8737 192.953 53.5038C192.609 54.198 192.298 54.8606 192.018 55.4907H191.869L191.125 53.9632C190.8 53.2878 190.511 52.7047 190.258 52.2129C190.005 51.7219 189.694 51.1251 189.325 50.4224C189.008 49.8358 188.697 49.2509 188.391 48.6644C188.237 49.9536 188.087 51.2549 187.944 52.5706C187.799 53.8864 187.726 54.9101 187.726 55.6393L187.253 55.5991L186.765 55.6393C186.955 54.4687 187.203 52.8037 187.51 50.6452C187.817 48.4868 188.003 47.0694 188.066 46.394H188.417C188.887 47.3128 189.27 48.0658 189.568 48.6516C189.929 49.3449 190.358 50.1432 190.854 51.0431C191.396 52.0267 191.86 52.837 192.248 53.4774C193.548 51.1157 194.848 48.7549 196.148 46.394Z" fill="#879DA5"/>
<path fill-rule="evenodd" clip-rule="evenodd" d="M200.601 47.0294V50.4225H202.7C202.871 50.4225 203.1 50.4131 203.384 50.3944C203.668 50.3773 203.841 50.3679 203.905 50.3679L203.864 50.7188L203.905 51.0979C203.743 51.0979 203.517 51.0843 203.228 51.0578C202.939 51.0305 202.763 51.0168 202.7 51.0168H200.601V54.964C200.89 54.964 201.362 54.9546 202.017 54.9367C202.671 54.9188 203.015 54.9094 203.052 54.9094C203.304 54.9094 203.49 54.9034 203.607 54.8897C203.724 54.8752 203.954 54.8419 204.297 54.7881L204.257 55.1937L204.297 55.5993H199.41V46.3942H204.217L204.176 46.7827L204.217 47.178C203.946 47.1234 203.724 47.0849 203.553 47.0627C203.381 47.0405 203.197 47.0294 202.998 47.0294H201.645H200.601Z" fill="#879DA5"/>
<path fill-rule="evenodd" clip-rule="evenodd" d="M214.181 46.394V55.6538H213.774L213.064 54.8213L207.222 48.3536H207.087V55.6392L206.708 55.5991L206.329 55.6538V46.394L206.86 46.3906L213.281 53.3612L213.423 53.3553V46.394L213.802 46.4342L214.181 46.394Z" fill="#879DA5"/>
<path fill-rule="evenodd" clip-rule="evenodd" d="M219.934 47.0428V55.6536L219.339 55.6263L218.743 55.6672V47.0428C218.039 47.0428 217.538 47.0522 217.24 47.0692C216.942 47.088 216.455 47.1324 215.778 47.2041L215.819 46.7994L215.778 46.3939H222.763L222.723 46.7994L222.763 47.2041C222.429 47.1683 222.007 47.1324 221.498 47.0966C220.987 47.0607 220.467 47.0428 219.934 47.0428Z" fill="#879DA5"/>
<path fill-rule="evenodd" clip-rule="evenodd" d="M132.56 66.0312C132.983 65.7255 133.304 65.4318 133.521 65.1526C133.8 64.7829 133.94 64.3816 133.94 63.9496C133.94 63.6251 133.841 63.3544 133.642 63.1384C133.444 62.9216 133.182 62.8131 132.857 62.8131C132.487 62.8131 132.202 62.9352 132.005 63.1786C131.806 63.4219 131.706 63.7241 131.706 64.0845C131.706 64.3184 131.767 64.5899 131.889 64.8956C132.011 65.2021 132.234 65.5804 132.56 66.0312ZM131.896 66.8824L131.788 66.9499C131.318 67.2479 130.971 67.545 130.745 67.8421C130.456 68.2204 130.312 68.6533 130.312 69.14C130.312 69.7077 130.504 70.1782 130.887 70.553C131.271 70.9262 131.742 71.1131 132.302 71.1131C132.663 71.1131 133.034 71.0235 133.412 70.8433C133.791 70.6632 134.134 70.4198 134.441 70.1133C134.08 69.6719 133.647 69.1331 133.142 68.4979C132.636 67.8626 132.221 67.3247 131.896 66.8824ZM135.47 69.6002L137.163 71.546C136.927 71.5273 136.756 71.5144 136.647 71.5059C136.54 71.4965 136.435 71.4922 136.337 71.4922L135.566 71.5324C135.339 71.2079 135.204 71.015 135.159 70.9518C135.05 70.7981 134.901 70.6137 134.712 70.3968C133.918 71.272 132.943 71.7083 131.788 71.7083C131.038 71.7083 130.423 71.5033 129.94 71.0935C129.456 70.6828 129.215 70.1364 129.215 69.4507C129.215 68.8471 129.45 68.2887 129.919 67.7747C130.307 67.3512 130.862 66.9593 131.584 66.599L131.666 66.558C131.359 66.0986 131.156 65.7691 131.056 65.5718C130.858 65.1748 130.759 64.8017 130.759 64.449C130.759 63.8454 130.95 63.3613 131.333 62.9958C131.718 62.6321 132.221 62.4494 132.844 62.4494C133.367 62.4494 133.795 62.5723 134.13 62.8208C134.464 63.0684 134.631 63.4176 134.631 63.8684C134.631 64.3731 134.432 64.8503 134.036 65.3012C133.773 65.5983 133.358 65.9364 132.79 66.3147C133.34 67.0173 133.895 67.7209 134.455 68.4236L135.172 69.2347C135.425 68.8727 135.702 68.4347 136.004 67.9241C136.307 67.4118 136.567 66.9567 136.783 66.558C136.837 66.6493 136.907 66.7416 136.994 66.8363C137.078 66.932 137.18 67.0242 137.298 67.1155C136.684 68.0565 136.074 68.8847 135.47 69.6002Z" fill="#879DA5"/>
<path fill-rule="evenodd" clip-rule="evenodd" d="M146.205 62.9627V71.5735L145.61 71.5462L145.014 71.5872V62.9627C144.31 62.9627 143.809 62.9721 143.512 62.9892C143.213 63.008 142.727 63.0524 142.049 63.1241L142.09 62.7194L142.049 62.3138H149.035L148.995 62.7194L149.035 63.1241C148.701 63.0882 148.279 63.0524 147.769 63.0165C147.259 62.9806 146.738 62.9627 146.205 62.9627Z" fill="#879DA5"/>
<path fill-rule="evenodd" clip-rule="evenodd" d="M151.701 62.9494V66.3425H153.8C153.971 66.3425 154.2 66.3331 154.484 66.3144C154.768 66.2973 154.942 66.2879 155.005 66.2879L154.964 66.6388L155.005 67.0179C154.843 67.0179 154.617 67.0043 154.328 66.9778C154.039 66.9505 153.863 66.9368 153.8 66.9368H151.701V70.884C151.99 70.884 152.463 70.8746 153.117 70.8567C153.771 70.8388 154.115 70.8294 154.152 70.8294C154.405 70.8294 154.59 70.8234 154.707 70.8097C154.824 70.7952 155.054 70.7619 155.397 70.7081L155.357 71.1137L155.397 71.5193H150.51V62.3142H155.317L155.276 62.7027L155.317 63.098C155.046 63.0434 154.824 63.0049 154.653 62.9827C154.481 62.9605 154.297 62.9494 154.098 62.9494H152.745H151.701Z" fill="#879DA5"/>
<path fill-rule="evenodd" clip-rule="evenodd" d="M164.414 70.1002L164.347 70.9438C163.95 71.2127 163.489 71.4065 162.967 71.5278C162.442 71.6473 161.905 71.7088 161.356 71.7088C159.874 71.7088 158.711 71.2716 157.862 70.399C157.014 69.5264 156.59 68.3516 156.59 66.8762C156.59 65.3999 157.082 64.2259 158.065 63.3533C159.004 62.5251 160.213 62.111 161.693 62.111C162.172 62.111 162.661 62.1648 163.162 62.2732C163.664 62.3816 164.144 62.5353 164.604 62.7325C164.55 62.8674 164.496 63.0374 164.442 63.2397C164.388 63.4421 164.347 63.6205 164.32 63.7734L164.224 63.787C164.125 63.6606 163.95 63.5078 163.697 63.3268C163.038 62.8598 162.353 62.6241 161.639 62.6241C160.447 62.6241 159.518 63.0519 158.85 63.9066C158.228 64.6989 157.916 65.7064 157.916 66.9299C157.916 68.2167 158.251 69.2464 158.918 70.0208C159.586 70.7944 160.462 71.1811 161.545 71.1811C162.032 71.1811 162.533 71.0855 163.047 70.8943C163.562 70.703 164.018 70.4383 164.414 70.1002Z" fill="#879DA5"/>
<path fill-rule="evenodd" clip-rule="evenodd" d="M173.215 66.1929V62.314L173.81 62.3541L174.406 62.314V71.5737L173.81 71.5191L173.215 71.5592V66.9101C172.772 66.9101 172.415 66.905 172.145 66.8956C171.062 66.8598 170.471 66.8427 170.371 66.8427C169.939 66.8427 169.384 66.8529 168.706 66.876C168.03 66.8982 167.632 66.9101 167.515 66.9101V71.5737L166.919 71.5191L166.323 71.5592V62.314L166.919 62.3541L167.515 62.314V66.1929C167.966 66.1929 168.532 66.2049 169.214 66.2271C169.895 66.2493 170.281 66.2604 170.371 66.2604C170.805 66.2604 171.157 66.2561 171.428 66.2467C172.511 66.2108 173.106 66.1929 173.215 66.1929Z" fill="#879DA5"/>
<path fill-rule="evenodd" clip-rule="evenodd" d="M184.844 62.3141V71.5738H184.437L183.726 70.7414L177.885 64.2736H177.75V71.5593L177.371 71.5192L176.991 71.5738V62.3141L177.522 62.3107L183.943 69.2813L184.085 69.2753V62.3141L184.465 62.3542L184.844 62.3141Z" fill="#879DA5"/>
<path fill-rule="evenodd" clip-rule="evenodd" d="M195.553 66.8358C195.553 66.2236 195.494 65.6815 195.377 65.2093C195.259 64.7371 195.034 64.2897 194.7 63.8662C194.365 63.4436 193.953 63.1191 193.461 62.8946C192.97 62.6692 192.443 62.5565 191.884 62.5565C190.701 62.5565 189.77 62.9689 189.088 63.792C188.407 64.615 188.066 65.7156 188.066 67.092C188.066 68.4146 188.427 69.4537 189.15 70.2093C189.826 70.9111 190.697 71.2629 191.761 71.2629C193.035 71.2629 194.023 70.7139 194.727 69.6159C195.278 68.7612 195.553 67.8348 195.553 66.8358ZM191.722 71.7086C190.215 71.7086 189.007 71.274 188.1 70.4065C187.193 69.5373 186.739 68.3796 186.739 66.9298C186.739 65.4808 187.222 64.3068 188.189 63.406C189.118 62.5428 190.304 62.1108 191.749 62.1108C193.156 62.1108 194.329 62.4762 195.268 63.2045C196.342 64.0413 196.879 65.2161 196.879 66.7274C196.879 68.2216 196.401 69.4246 195.445 70.3391C194.488 71.2518 193.247 71.7086 191.722 71.7086Z" fill="#879DA5"/>
<path fill-rule="evenodd" clip-rule="evenodd" d="M199.845 62.3141V70.8839C200.134 70.8839 200.606 70.8745 201.26 70.8566C201.914 70.8387 202.259 70.8301 202.295 70.8301C202.512 70.8301 202.778 70.8113 203.094 70.7755C203.311 70.7396 203.473 70.7174 203.581 70.708L203.54 71.1136L203.581 71.5192H198.653V62.3141L199.249 62.3542L199.845 62.3141Z" fill="#879DA5"/>
<path fill-rule="evenodd" clip-rule="evenodd" d="M213.599 66.8358C213.599 66.2236 213.54 65.6815 213.423 65.2093C213.305 64.7371 213.08 64.2897 212.746 63.8662C212.411 63.4436 211.999 63.1191 211.507 62.8946C211.016 62.6692 210.489 62.5565 209.93 62.5565C208.747 62.5565 207.816 62.9689 207.134 63.792C206.453 64.615 206.112 65.7156 206.112 67.092C206.112 68.4146 206.473 69.4537 207.196 70.2093C207.872 70.9111 208.743 71.2629 209.807 71.2629C211.081 71.2629 212.069 70.7139 212.773 69.6159C213.324 68.7612 213.599 67.8348 213.599 66.8358ZM209.768 71.7086C208.26 71.7086 207.053 71.274 206.146 70.4065C205.239 69.5373 204.785 68.3796 204.785 66.9298C204.785 65.4808 205.268 64.3068 206.235 63.406C207.164 62.5428 208.35 62.1108 209.795 62.1108C211.202 62.1108 212.375 62.4762 213.314 63.2045C214.388 64.0413 214.925 65.2161 214.925 66.7274C214.925 68.2216 214.446 69.4246 213.49 70.3391C212.534 71.2518 211.293 71.7086 209.768 71.7086Z" fill="#879DA5"/>
<path fill-rule="evenodd" clip-rule="evenodd" d="M224.781 63.9358H224.633C224.263 63.5123 223.809 63.1879 223.272 62.9625C222.734 62.7379 222.173 62.6244 221.587 62.6244C220.404 62.6244 219.458 62.9958 218.75 63.7386C218.041 64.4806 217.687 65.5214 217.687 66.8627C217.687 68.2297 218.033 69.2936 218.723 70.0543C219.414 70.8151 220.417 71.195 221.735 71.195C222.115 71.195 222.486 71.1566 222.852 71.0798C223.218 71.0038 223.55 70.8902 223.848 70.7365V67.2743L224.443 67.3153L225.039 67.2743V71.0883C223.838 71.5016 222.611 71.709 221.357 71.709C219.713 71.709 218.455 71.254 217.579 70.3455C216.767 69.4993 216.361 68.3612 216.361 66.9302C216.361 65.4001 216.861 64.2031 217.863 63.3399C218.82 62.521 220.079 62.1104 221.64 62.1104C222.525 62.1104 223.315 62.2145 224.01 62.422C224.434 62.5484 224.795 62.7063 225.093 62.895C225.057 62.9941 225.01 63.1426 224.951 63.3416C224.892 63.5397 224.835 63.7377 224.781 63.9358Z" fill="#879DA5"/>
<path fill-rule="evenodd" clip-rule="evenodd" d="M230.805 67.417V71.5734L230.209 71.5196L229.613 71.5597V67.6663L226.297 62.3137L227.055 62.3538L227.799 62.3137C228.097 62.8994 228.542 63.7105 229.133 64.7471C229.723 65.7836 230.137 66.4812 230.372 66.8424C230.516 66.6707 230.778 66.2566 231.157 65.5983C231.428 65.1296 231.78 64.4943 232.213 63.6926C232.457 63.2332 232.705 62.7739 232.958 62.3137L233.486 62.3538L234.014 62.3137C233.679 62.738 233.359 63.1897 233.052 63.667L231.564 66.0637C231.382 66.3429 231.24 66.5743 231.137 66.7544C231.033 66.9346 230.922 67.1557 230.805 67.417Z" fill="#879DA5"/>
<path fill-rule="evenodd" clip-rule="evenodd" d="M152.103 12.588C153.29 12.588 154.338 12.617 155.249 12.6759C156.16 12.734 157.041 12.8219 157.893 12.938C157.877 12.8048 157.852 12.6213 157.819 12.3873C157.786 12.1542 157.769 11.9792 157.769 11.8622C157.769 11.729 157.781 11.5617 157.806 11.361C157.831 11.1612 157.86 10.9691 157.893 10.7856H148.343V18.4034V20.6216V24.6175H157.893C157.877 24.4843 157.852 24.3007 157.819 24.0668C157.786 23.8337 157.769 23.6587 157.769 23.5417C157.769 23.4085 157.781 23.2411 157.806 23.0413C157.831 22.8407 157.86 22.6494 157.893 22.465C157.041 22.582 156.16 22.6699 155.249 22.728C154.338 22.7869 153.29 22.8159 152.103 22.8159V20.6216V19.6713V18.4034V18.4008H153.985C154.453 18.4008 154.983 18.4256 155.577 18.4759C156.17 18.5263 156.668 18.5758 157.069 18.6262C157.052 18.493 157.027 18.3095 156.994 18.0755C156.96 17.8416 156.943 17.6665 156.943 17.5496C156.943 17.4164 156.956 17.249 156.981 17.0492C157.006 16.8486 157.036 16.6573 157.069 16.4737C156.383 16.5736 155.862 16.636 155.502 16.6616C155.142 16.6863 154.637 16.6983 153.985 16.6983H152.103V16.1322V12.588Z" fill="#0C2D46"/>
<path fill-rule="evenodd" clip-rule="evenodd" d="M148.13 9.51905H158.107V7.72943H148.13V9.51905Z" fill="#ECA22D"/>
<path fill-rule="evenodd" clip-rule="evenodd" d="M68.2769 22.4111C63.9379 22.4111 59.6819 24.0777 56.0947 28.2435C54.7589 24.1606 51.6719 22.4111 48 22.4111C44.1202 22.4111 40.3192 23.8242 36.9756 27.1686V32.5502C38.8218 30.9672 40.9203 29.993 42.5759 29.993C44.8291 29.993 46.1649 31.1594 46.1649 34.8257V71.401H56.9293V33.7422V32.8252C58.7644 31.0757 61.1006 29.993 62.8528 29.993C65.0223 29.993 66.358 31.1594 66.358 34.8257V71.401H77.2053V33.7422C77.2053 26.1602 73.4504 22.4111 68.2769 22.4111Z" fill="#0C2D46"/>
<path fill-rule="evenodd" clip-rule="evenodd" d="M18.3542 71.5185C12.211 71.498 7.02459 69.2823 3.38001 64.1611C-0.474078 58.7461 -0.89737 52.8582 2.27603 47.006C5.69314 40.7048 11.243 37.8693 18.3098 37.9068C11.6491 49.144 11.6799 60.1976 18.3542 71.5185Z" fill="#0C2D46"/>
<path fill-rule="evenodd" clip-rule="evenodd" d="M84.1336 30.6771H95.5651V30.6592H102.825V23.2437H95.5651V15.9802L84.1336 9.39041V23.2437H79.2944V30.6592H84.1336V30.6771Z" fill="#0C2D46"/>
<path fill-rule="evenodd" clip-rule="evenodd" d="M99.9046 62.9862C96.9844 62.9862 95.5657 61.6525 95.5657 58.4037V36.9036H84.1343V59.4035C84.1343 67.2357 86.8878 71.9838 96.1498 71.9838C98.9871 71.9838 101.49 71.7336 103.41 71.4006V62.6523C102.325 62.9025 101.073 62.9862 99.9046 62.9862Z" fill="#0C2D46"/>
</svg>
