<svg width="112" height="69" viewBox="0 0 112 69" fill="none" xmlns="http://www.w3.org/2000/svg">
<path fill-rule="evenodd" clip-rule="evenodd" d="M21.2983 6.20672C21.3365 2.77965 24.1788 0.0056962 27.6575 8.42128e-06C31.2507 -0.00566247 34.1711 2.85348 34.1695 6.37548C34.1687 9.81229 31.0996 12.828 27.625 12.807C24.139 12.7858 21.2584 9.78146 21.2983 6.20672Z" fill="#ECA22D"/>
<path fill-rule="evenodd" clip-rule="evenodd" d="M34.1631 62.1682H34.1656C34.1582 45.9326 34.1509 29.6978 34.1444 13.4639C29.3242 16.0804 24.7843 19.1886 19.4912 21.29C19.4912 21.29 22.1492 23.0344 22.2507 28.7299C22.4287 29.3043 22.2735 29.9266 22.2743 30.5132C22.2759 31.3781 22.2767 32.2438 22.2784 33.1095H22.2572V56.8816C22.2507 57.9209 22.2548 58.9602 22.2458 59.9987C22.245 60.1513 22.2507 60.2859 22.2572 60.4214V63.2757C22.2515 64.0773 22.2524 64.8773 22.2458 65.6781C22.232 67.3802 22.6001 68.0317 24.4455 67.9352C27.6787 67.7673 30.925 67.863 34.1656 67.8476C34.1647 65.9539 34.1639 64.0611 34.1631 62.1682Z" fill="#0C2D46"/>
<path fill-rule="evenodd" clip-rule="evenodd" d="M110.405 68.3864H111.274V6.75342H110.405V68.3864Z" fill="#ECA22D"/>
<path fill-rule="evenodd" clip-rule="evenodd" d="M64.7255 21.2808C60.6025 21.2808 56.5583 22.8645 53.1495 26.823C51.8803 22.9432 48.9469 21.2808 45.4577 21.2808C41.771 21.2808 38.1591 22.6235 34.9819 25.8015V30.9154C36.7363 29.4111 38.7304 28.4854 40.3035 28.4854C42.4446 28.4854 43.7139 29.5937 43.7139 33.0776V67.8327H53.9426V32.048V31.1766C55.6864 29.5142 57.9064 28.4854 59.5714 28.4854C61.6329 28.4854 62.9021 29.5937 62.9021 33.0776V67.8327H73.2097V32.048C73.2097 24.8433 69.6416 21.2808 64.7255 21.2808Z" fill="#0C2D46"/>
<path fill-rule="evenodd" clip-rule="evenodd" d="M17.2873 67.9442C11.4497 67.9247 6.52143 65.8193 3.05822 60.9529C-0.604064 55.8075 -1.00629 50.2125 2.00919 44.6516C5.25625 38.664 10.5299 35.9695 17.245 36.0052C10.9158 46.6832 10.9451 57.1867 17.2873 67.9442Z" fill="#0C2D46"/>
<path fill-rule="evenodd" clip-rule="evenodd" d="M79.7932 29.1351H90.6557V29.118H97.5545V22.0716H90.6557V15.1696L79.7932 8.90771V22.0716H75.1948V29.118H79.7932V29.1351Z" fill="#0C2D46"/>
<path fill-rule="evenodd" clip-rule="evenodd" d="M94.779 59.8364C92.0041 59.8364 90.656 58.5691 90.656 55.482V35.0518H79.7935V56.432C79.7935 63.8744 82.41 68.3862 91.211 68.3862C93.9071 68.3862 96.2855 68.1485 98.1098 67.8321V59.5192C97.0786 59.7569 95.889 59.8364 94.779 59.8364Z" fill="#0C2D46"/>
</svg>
