<svg width="27" height="20" viewBox="0 0 27 20" fill="none" xmlns="http://www.w3.org/2000/svg">
<path d="M24.1667 20H2.5C1.11667 20 0 18.8833 0 17.5V2.5C0 1.11667 1.11667 0 2.5 0H24.1667C25.55 0 26.6667 1.11667 26.6667 2.5V17.5C26.6667 18.8833 25.55 20 24.1667 20ZM2.5 1.66667C2.03333 1.66667 1.66667 2.03333 1.66667 2.5V17.5C1.66667 17.9667 2.03333 18.3333 2.5 18.3333H24.1667C24.6333 18.3333 25 17.9667 25 17.5V2.5C25 2.03333 24.6333 1.66667 24.1667 1.66667H2.5Z" fill="white"/>
<path d="M13.3333 13.2669C12.1666 13.2669 11.1 12.8003 10.3 11.9503L1.54995 2.65028C1.23329 2.31695 1.24995 1.78361 1.58329 1.46695C1.91662 1.15028 2.44995 1.16695 2.76662 1.50028L11.5166 10.8003C12.4666 11.8169 14.2 11.8169 15.15 10.8003L23.9 1.51695C24.2166 1.18361 24.75 1.16695 25.0833 1.48361C25.4166 1.80028 25.4333 2.33361 25.1166 2.66695L16.3666 11.9669C15.5666 12.8169 14.5 13.2836 13.3333 13.2836V13.2669Z" fill="white"/>
</svg>
