<svg width="37" height="37" viewBox="0 0 37 37" fill="none" xmlns="http://www.w3.org/2000/svg">
<path d="M36.9974 18.5006C36.9974 27.8443 30.0716 35.5689 21.0743 36.8224C20.2331 36.9391 19.3724 37 18.4987 37C17.4902 37 16.4999 36.9196 15.5355 36.7641C6.72751 35.3459 0 27.7082 0 18.5006C0 8.28329 8.283 0 18.5 0C28.717 0 37 8.28329 37 18.5006H36.9974Z" fill="white"/>
<path d="M21.0744 14.8551V18.8853H26.0597L25.2703 24.3141H21.0744V36.822C20.2331 36.9387 19.3724 36.9996 18.4987 36.9996C17.4903 36.9996 16.4999 36.9192 15.5355 36.7637L15.5355 24.3141H10.9377V18.8853H15.5355V13.9542C15.5355 10.8949 18.0152 8.41382 21.0757 8.41382V8.41641C21.0847 8.41641 21.0925 8.41382 21.1016 8.41382H26.061V13.109H22.8204C21.8573 13.109 21.0757 13.8906 21.0757 14.8538L21.0744 14.8551Z" fill="#181818"/>
</svg>
