<svg width="50" height="31" viewBox="0 0 50 31" fill="none" xmlns="http://www.w3.org/2000/svg">
<path fill-rule="evenodd" clip-rule="evenodd" d="M33.2463 1.83751C33.2463 1.35017 33.4263 0.882795 33.7466 0.538194C34.0669 0.193594 34.5014 0 34.9544 0H47.6673C48.1203 0 48.5548 0.193594 48.8751 0.538194C49.1955 0.882795 49.3754 1.35017 49.3754 1.83751V15.4253C49.3754 15.9126 49.1955 16.38 48.8751 16.7246C48.5548 17.0692 48.1203 17.2628 47.6673 17.2628C47.2143 17.2628 46.7798 17.0692 46.4595 16.7246C46.1392 16.38 45.9592 15.9126 45.9592 15.4253V6.25489L31.9846 21.1926C30.9164 22.3343 29.9963 23.3192 29.1605 24.0028C28.2632 24.7329 27.2702 25.2866 26.0426 25.2866C24.8173 25.2866 23.8221 24.7329 22.9247 24.0003C22.0889 23.3192 21.1711 22.3343 20.1007 21.1926L19.4766 20.5238C18.306 19.2718 17.5476 18.4658 16.9145 17.9488C16.3223 17.4637 16.0445 17.4098 15.86 17.4098C15.6778 17.4098 15.3999 17.4662 14.8078 17.9488C14.1769 18.4658 13.4185 19.2718 12.2479 20.5262L3.32242 30.0862C2.99806 30.4101 2.56947 30.586 2.12695 30.5767C1.68443 30.5674 1.26254 30.3737 0.950167 30.0364C0.637791 29.6991 0.459322 29.2445 0.45236 28.7684C0.445398 28.2924 0.610487 27.832 0.912846 27.4843L9.91574 17.8361C10.9862 16.6944 11.904 15.707 12.7398 15.0235C13.6372 14.2885 14.6324 13.7372 15.86 13.7348C17.0875 13.7348 18.0828 14.2885 18.9801 15.021C19.816 15.7046 20.7361 16.6895 21.8042 17.8337L22.4305 18.5001C23.6011 19.752 24.3596 20.5581 24.9904 21.0726C25.5826 21.5577 25.8604 21.6116 26.0426 21.6116C26.2248 21.6116 26.5027 21.5577 27.0948 21.0726C27.728 20.5581 28.4841 19.752 29.657 18.5001L43.5269 3.67257H34.9544C34.5014 3.67257 34.0669 3.47898 33.7466 3.13438C33.4263 2.78978 33.2463 2.32485 33.2463 1.83751Z" fill="#ECA22D"/>
</svg>
