<svg width="38" height="38" viewBox="0 0 38 38" fill="none" xmlns="http://www.w3.org/2000/svg">
<circle cx="19" cy="19" r="19" fill="#0C2D46"/>
<path d="M18.7997 24.1267C20.0638 24.1267 21.2761 23.6246 22.17 22.7307C23.0638 21.8369 23.566 20.6246 23.566 19.3605C23.566 18.0964 23.0638 16.8841 22.17 15.9902C21.2761 15.0964 20.0638 14.5942 18.7997 14.5942C17.5356 14.5942 16.3233 15.0964 15.4295 15.9902C14.5356 16.8841 14.0334 18.0964 14.0334 19.3605C14.0334 20.6246 14.5356 21.8369 15.4295 22.7307C16.3233 23.6246 17.5356 24.1267 18.7997 24.1267Z" stroke="white" stroke-width="2" stroke-linecap="round" stroke-linejoin="round"/>
<path d="M8.07568 24.1266V14.594C8.07568 13.0139 8.70338 11.4985 9.82069 10.3812C10.938 9.26393 12.4534 8.63623 14.0335 8.63623H23.566C25.1461 8.63623 26.6615 9.26393 27.7788 10.3812C28.8961 11.4985 29.5238 13.0139 29.5238 14.594V24.1266C29.5238 25.7067 28.8961 27.2221 27.7788 28.3394C26.6615 29.4567 25.1461 30.0844 23.566 30.0844H14.0335C12.4534 30.0844 10.938 29.4567 9.82069 28.3394C8.70338 27.2221 8.07568 25.7067 8.07568 24.1266Z" stroke="white" stroke-width="2"/>
<path d="M25.3533 12.8182L25.3649 12.8054" stroke="white" stroke-width="2" stroke-linecap="round" stroke-linejoin="round"/>
</svg>
