<svg width="37" height="37" viewBox="0 0 37 37" fill="none" xmlns="http://www.w3.org/2000/svg">
<path d="M18.5421 0L18.4579 0C8.26387 0 0 8.26387 0 18.4579L0 18.5421C0 28.7361 8.26387 37 18.4579 37H18.5421C28.7361 37 37 28.7361 37 18.5421V18.4579C37 8.26387 28.7361 0 18.5421 0Z" fill="white"/>
<path d="M24.225 7.52734H12.7761C9.61317 7.52734 7.04004 10.1005 7.04004 13.2634L7.04004 23.7374C7.04004 26.9004 9.61317 29.4735 12.7761 29.4735H24.225C27.3879 29.4735 29.961 26.9004 29.961 23.7374V13.2634C29.961 10.1005 27.3879 7.52734 24.225 7.52734ZM9.06355 13.2634C9.06355 11.2166 10.7293 9.55085 12.7761 9.55085H24.225C26.2718 9.55085 27.9375 11.2166 27.9375 13.2634V23.7374C27.9375 25.7843 26.2718 27.45 24.225 27.45H12.7761C10.7293 27.45 9.06355 25.7843 9.06355 23.7374V13.2634Z" fill="#181818"/>
<path d="M18.5008 23.8351C21.4421 23.8351 23.8363 21.4422 23.8363 18.4996C23.8363 15.557 21.4434 13.1641 18.5008 13.1641C15.5582 13.1641 13.1653 15.557 13.1653 18.4996C13.1653 21.4422 15.5582 23.8351 18.5008 23.8351ZM18.5008 15.1889C20.3273 15.1889 21.8128 16.6744 21.8128 18.5009C21.8128 20.3274 20.3273 21.8129 18.5008 21.8129C16.6743 21.8129 15.1888 20.3274 15.1888 18.5009C15.1888 16.6744 16.6743 15.1889 18.5008 15.1889Z" fill="#181818"/>
<path d="M24.3299 14.0256C25.1219 14.0256 25.7675 13.3813 25.7675 12.588C25.7675 11.7947 25.1232 11.1504 24.3299 11.1504C23.5366 11.1504 22.8923 11.7947 22.8923 12.588C22.8923 13.3813 23.5366 14.0256 24.3299 14.0256Z" fill="#181818"/>
</svg>
