<svg width="37" height="37" viewBox="0 0 37 37" fill="none" xmlns="http://www.w3.org/2000/svg">
<path d="M18.5421 0L18.4579 0C8.26388 0 0 8.26387 0 18.4579L0 18.5421C0 28.7361 8.26388 37 18.4579 37H18.5421C28.7361 37 37 28.7361 37 18.5421V18.4579C37 8.26387 28.7361 0 18.5421 0Z" fill="white"/>
<path d="M8.82379 12.2982C8.33639 11.8458 8.09399 11.2858 8.09399 10.6195C8.09399 9.95318 8.33768 9.36855 8.82379 8.91485C9.31119 8.46245 9.9386 8.2356 10.7073 8.2356C11.476 8.2356 12.0788 8.46245 12.5649 8.91485C13.0523 9.36725 13.2947 9.93633 13.2947 10.6195C13.2947 11.3026 13.051 11.8458 12.5649 12.2982C12.0775 12.7506 11.4591 12.9774 10.7073 12.9774C9.95545 12.9774 9.31119 12.7506 8.82379 12.2982ZM12.8851 14.8933V28.7636H8.50231L8.50231 14.8933H12.8851Z" fill="#181818"/>
<path d="M27.4749 16.264C28.4303 17.3011 28.9073 18.7244 28.9073 20.5366V28.5192H24.745V21.0992C24.745 20.1853 24.5078 19.475 24.0346 18.9694C23.5615 18.4638 22.9237 18.2098 22.1252 18.2098C21.3267 18.2098 20.6889 18.4625 20.2157 18.9694C19.7426 19.475 19.5053 20.1853 19.5053 21.0992V28.5192H15.3184L15.3184 14.855H19.5053V16.6672C19.9292 16.0631 20.5009 15.5861 21.2191 15.2348C21.9372 14.8835 22.7448 14.7085 23.6431 14.7085C25.2427 14.7085 26.5209 15.227 27.4749 16.2627V16.264Z" fill="#181818"/>
</svg>
