<svg width="38" height="38" viewBox="0 0 38 38" fill="none" xmlns="http://www.w3.org/2000/svg">
<circle cx="19" cy="19" r="19" fill="#0C2D46"/>
<path d="M12.617 10.3344C12.6167 10.9532 12.3732 11.5465 11.94 11.9839C11.5069 12.4212 10.9196 12.6667 10.3073 12.6664C9.69509 12.6661 9.10804 12.42 8.67533 11.9822C8.24262 11.5444 7.99969 10.9508 8 10.332C8.00031 9.71323 8.24382 9.1199 8.67696 8.68255C9.1101 8.24521 9.6974 7.99969 10.3097 8C10.9219 8.00031 11.509 8.24643 11.9417 8.6842C12.3744 9.12198 12.6173 9.71557 12.617 10.3344ZM12.6863 14.3941H8.06926V29H12.6863V14.3941ZM19.9811 14.3941H15.3872V29H19.9349V21.3354C19.9349 17.0657 25.4407 16.669 25.4407 21.3354V29H30V19.7488C30 12.5509 21.851 12.8192 19.9349 16.354L19.9811 14.3941Z" fill="white"/>
</svg>
