<svg width="25" height="30" viewBox="0 0 25 30" fill="none" xmlns="http://www.w3.org/2000/svg">
<path d="M14.9083 29.0543C18.5396 25.7636 25 19.0406 25 12.8711C25 9.45744 23.683 6.18363 21.3388 3.76984C18.9946 1.35605 15.8152 0 12.5 0C9.18479 0 6.00537 1.35605 3.66116 3.76984C1.31696 6.18363 4.94004e-08 9.45744 0 12.8711C0 19.0406 6.45833 25.7636 10.0917 29.0543C10.7544 29.6634 11.6117 30 12.5 30C13.3883 30 14.2456 29.6634 14.9083 29.0543ZM8.33333 12.8711C8.33333 11.7332 8.77232 10.6419 9.55372 9.83732C10.3351 9.03272 11.3949 8.5807 12.5 8.5807C13.6051 8.5807 14.6649 9.03272 15.4463 9.83732C16.2277 10.6419 16.6667 11.7332 16.6667 12.8711C16.6667 14.0089 16.2277 15.1002 15.4463 15.9048C14.6649 16.7094 13.6051 17.1614 12.5 17.1614C11.3949 17.1614 10.3351 16.7094 9.55372 15.9048C8.77232 15.1002 8.33333 14.0089 8.33333 12.8711Z" fill="#ECA22D"/>
</svg>
