<svg width="18" height="23" viewBox="0 0 18 23" fill="none" xmlns="http://www.w3.org/2000/svg">
<path d="M5.30982 0.0233456C6.53139 -0.141953 7.55855 0.591997 8.04457 1.54596L9.24006 3.89332C9.9033 5.19592 9.52219 6.72435 8.51696 7.68587C7.92306 8.25336 7.32621 8.90175 6.98007 9.4739C6.95714 9.51468 6.94998 9.56221 6.95991 9.60776C7.27998 11.3108 8.45531 12.9935 9.50381 14.2C9.55655 14.2576 9.62537 14.2986 9.70168 14.3179C9.778 14.3373 9.85843 14.3341 9.93293 14.3089L12.2889 13.586C12.9236 13.3912 13.6051 13.4012 14.2336 13.6144C14.862 13.8277 15.4044 14.233 15.7812 14.771L17.4864 17.2069C17.9487 17.8675 18.1828 18.7638 17.8284 19.6258C17.5119 20.3958 16.8996 21.5064 15.7859 22.245C14.6301 23.0109 13.047 23.302 10.9755 22.6047C8.66098 21.8247 6.47449 19.8691 4.66139 17.3681C2.83763 14.8513 1.3363 11.7078 0.425905 8.42972C-0.434707 5.33502 0.0845054 3.25133 1.30667 1.90973C2.48556 0.615278 4.17478 0.176422 5.30982 0.0233456ZM6.71868 2.19668C6.44781 1.66527 5.96476 1.40278 5.51134 1.46389C4.50314 1.60009 3.24067 1.96852 2.41148 2.87941C1.62555 3.74257 1.08144 5.26285 1.85433 8.04674C2.72265 11.1711 4.15226 14.157 5.86815 16.5241C7.5947 18.9064 9.55657 20.5885 11.4556 21.2282C13.1478 21.798 14.2354 21.5163 14.9561 21.039C15.7184 20.5332 16.1872 19.7294 16.4539 19.081C16.576 18.7842 16.5233 18.4 16.2648 18.031L14.5596 15.5958C14.3623 15.3139 14.0782 15.1016 13.7491 14.9898C13.4199 14.8781 13.063 14.8728 12.7305 14.9747L10.3745 15.6976C9.67036 15.9136 8.87732 15.7209 8.37648 15.1447C7.28531 13.8892 5.89482 11.9639 5.50185 9.87143C5.42674 9.47928 5.49919 9.07368 5.70574 8.73005C6.15502 7.98854 6.86627 7.23247 7.48209 6.64345C8.08369 6.06839 8.25439 5.2128 7.91417 4.54403L6.71868 2.19668Z" fill="white"/>
</svg>
