<svg width="95" height="72" viewBox="0 0 95 72" fill="none" xmlns="http://www.w3.org/2000/svg">
<path d="M2 2H80.2646M2 33.4341H23.5228M2 64.8683H23.5228" stroke="#0C2D46" stroke-width="4" stroke-linecap="round"/>
<path d="M61.2736 57.4657C66.8689 57.4657 72.2349 55.243 76.1914 51.2866C80.1478 47.3302 82.3705 41.9641 82.3705 36.3688C82.3705 30.7736 80.1478 25.4075 76.1914 21.4511C72.2349 17.4947 66.8689 15.272 61.2736 15.272C55.6784 15.272 50.3123 17.4947 46.3559 21.4511C42.3995 25.4075 40.1768 30.7736 40.1768 36.3688C40.1768 41.9641 42.3995 47.3302 46.3559 51.2866C50.3123 55.243 55.6784 57.4657 61.2736 57.4657Z" stroke="#ECA22D" stroke-width="4"/>
<path d="M74.9243 52.502L92.2982 69.9999" stroke="#ECA22D" stroke-width="4" stroke-linecap="round"/>
</svg>
