<svg width="42" height="40" viewBox="0 0 42 40" fill="none" xmlns="http://www.w3.org/2000/svg">
<path d="M32.116 39.9041C31.5682 39.9036 31.0331 39.7396 30.5791 39.4331L21.3323 33.2356C21.2868 33.2041 21.2327 33.1873 21.1774 33.1873C21.122 33.1873 21.068 33.2041 21.0224 33.2356L11.7757 39.4331C11.3114 39.7432 10.7637 39.9046 10.2054 39.8961C9.64719 39.8875 9.10474 39.7093 8.65014 39.3852C8.19554 39.061 7.8503 38.6063 7.66026 38.0813C7.47022 37.5563 7.44437 36.9859 7.58615 36.4459L10.6229 25.7365C10.6373 25.6827 10.6356 25.6258 10.6179 25.573C10.6003 25.5201 10.5676 25.4735 10.5238 25.4391L1.77285 18.5598C1.31217 18.2166 0.970448 17.7378 0.795599 17.1906C0.62075 16.6434 0.621541 16.0552 0.797861 15.5085C0.974182 14.9618 1.31719 14.4839 1.77879 14.142C2.24039 13.8 2.79743 13.6111 3.37181 13.6018L14.5274 13.1803C14.5822 13.1765 14.6348 13.157 14.6788 13.124C14.7228 13.091 14.7563 13.046 14.7753 12.9944L18.6178 2.54533C18.8115 2.01561 19.1632 1.55821 19.6255 1.23504C20.0877 0.911872 20.6381 0.738556 21.2022 0.738556C21.7662 0.738556 22.3166 0.911872 22.7788 1.23504C23.2411 1.55821 23.5929 2.01561 23.7865 2.54533L27.629 12.9944C27.648 13.046 27.6815 13.091 27.7255 13.124C27.7695 13.157 27.8221 13.1765 27.8769 13.1803L39.0325 13.6018C39.6069 13.6111 40.1639 13.8 40.6255 14.142C41.0871 14.4839 41.4301 14.9618 41.6065 15.5085C41.7828 16.0552 41.7836 16.6434 41.6087 17.1906C41.4339 17.7378 41.0921 18.2166 40.6315 18.5598L31.8805 25.4391C31.8354 25.4724 31.8017 25.5189 31.7839 25.5721C31.7662 25.6254 31.7653 25.6828 31.7814 25.7365L34.8182 36.4459C34.9248 36.8567 34.9353 37.2865 34.8491 37.702C34.7628 38.1175 34.582 38.5076 34.3207 38.842C34.0594 39.1764 33.7247 39.4462 33.3423 39.6304C32.96 39.8146 32.5404 39.9082 32.116 39.9041ZM21.1836 30.707C21.7325 30.7238 22.2636 30.9051 22.7082 31.2276L31.9549 37.4251C32.0018 37.4607 32.0589 37.4802 32.1177 37.4807C32.1766 37.4812 32.234 37.4626 32.2815 37.4277C32.3289 37.3928 32.3637 37.3436 32.3808 37.2873C32.3979 37.2309 32.3964 37.1706 32.3763 37.1152L29.3395 26.4059C29.1901 25.8805 29.2011 25.3225 29.3712 24.8035C29.5413 24.2844 29.8626 23.8281 30.294 23.493L39.0449 16.6138C39.0926 16.5802 39.1284 16.5323 39.1468 16.4769C39.1653 16.4216 39.1655 16.3618 39.1475 16.3063C39.1295 16.2508 39.0941 16.2026 39.0466 16.1687C38.9992 16.1348 38.9421 16.117 38.8838 16.118L27.7282 15.6965C27.1819 15.6752 26.6544 15.4917 26.2129 15.1694C25.7714 14.8471 25.4359 14.4006 25.2492 13.8868L21.4067 3.43778C21.3894 3.38229 21.3548 3.3338 21.3079 3.29937C21.2611 3.26493 21.2045 3.24636 21.1464 3.24636C21.0883 3.24636 21.0317 3.26493 20.9848 3.29937C20.938 3.3338 20.9034 3.38229 20.8861 3.43778L17.0808 13.8744C16.8941 14.3882 16.5585 14.8347 16.117 15.157C15.6755 15.4793 15.148 15.6628 14.6018 15.6841L3.44618 16.1056C3.38786 16.1046 3.33076 16.1224 3.28329 16.1563C3.23582 16.1902 3.20048 16.2385 3.18245 16.2939C3.16442 16.3494 3.16465 16.4092 3.18312 16.4645C3.20159 16.5199 3.23731 16.5678 3.28505 16.6014L12.0484 23.493C12.4784 23.8292 12.7988 24.2856 12.9687 24.8043C13.1387 25.3229 13.1505 25.8804 13.0028 26.4059L9.9784 37.1152C9.96035 37.1689 9.96027 37.2269 9.97816 37.2806C9.99605 37.3343 10.0309 37.3807 10.0776 37.4127C10.1225 37.4511 10.1796 37.4722 10.2387 37.4722C10.2978 37.4722 10.3549 37.4511 10.3998 37.4127L19.6466 31.2152C20.0985 30.9154 20.6289 30.7559 21.1712 30.7566L21.1836 30.707Z" fill="#ECA22D"/>
</svg>
