<svg width="12" height="16" viewBox="0 0 12 16" fill="none" xmlns="http://www.w3.org/2000/svg">
<path d="M3.18438 0.0851646C3.61446 -0.0468024 4.07599 -0.0248782 4.49213 0.147287C4.90826 0.319453 5.25391 0.631474 5.47152 1.03141L5.54425 1.18045L6.19491 2.65183C6.39238 3.09842 6.45648 3.59425 6.37924 4.07763C6.302 4.56101 6.08682 5.01061 5.76048 5.37053L5.62976 5.50256L4.60462 6.47581C4.41984 6.65386 4.55843 7.34303 5.22678 8.52134C5.8283 9.58161 6.31777 10.0767 6.55857 10.1037H6.60084L6.65293 10.0937L8.66782 9.46658C8.93861 9.38206 9.22759 9.37872 9.5002 9.45695C9.77281 9.53517 10.0175 9.69166 10.205 9.90769L10.2945 10.0227L11.6282 11.9032C11.8896 12.2718 12.0199 12.72 11.9975 13.174C11.9752 13.628 11.8016 14.0607 11.5054 14.4009L11.3855 14.5269L10.8527 15.041C10.3744 15.5021 9.77597 15.8136 9.12868 15.9386C8.4814 16.0636 7.81245 15.9968 7.20137 15.7462C5.29951 14.966 3.57163 13.1835 2.00198 10.4168C0.429387 7.64311 -0.224223 5.22549 0.06769 3.15496C0.156024 2.52906 0.409277 1.9392 0.800553 1.44801C1.19183 0.956825 1.70652 0.582654 2.28996 0.365237L2.47966 0.30122L3.18438 0.0851646Z" fill="#ECA22D"/>
</svg>
